<svg xmlns="http://www.w3.org/2000/svg" width="400" height="170.352" viewBox="0 0 400 170.352"><g fill-rule="evenodd"><path fill="#fc6404" d="M245.013.354c-1.337.177-2.909.442-3.492.589s-1.157.275-1.274.286-.213.072-.213.135-.441.213-.979.334c-1.387.309-2.749.76-3.904 1.291-.547.252-1.294.565-1.661.696s-.769.323-.894.427c-.126.104-.229.122-.231.04-.001-.082-.059-.062-.127.043-.069.105-.662.456-1.318.779-.656.324-1.538.806-1.959 1.073s-.805.48-.852.474c-.047-.005-.307.154-.577.355-.481.356-1.31.958-2.953 2.144-.448.324-1.082.844-1.41 1.158s-.807.697-1.065.854-.469.381-.469.498-.161.299-.359.405c-.334.179-2.537 2.362-2.537 2.514 0 .038-.373.477-.828.975a31 31 0 0 0-1.628 1.983c-.44.592-.893 1.192-1.007 1.332-.115.141-.508.754-.875 1.363-.366.609-.719 1.146-.783 1.193s-.364.583-.668 1.192-.649 1.223-.767 1.363c-.321.381-1.943 4.179-2.329 5.452-.185.609-.437 1.337-.561 1.618s-.428 1.393-.676 2.47a183 183 0 0 1-.558 2.385c-.059.234-.094.487-.078.561.017.074-.038.265-.121.426-.468.896-.638 11.86-.216 13.919.115.563.225 1.176.245 1.363s.083.418.142.511.161.516.228.937c.175 1.113.978 4.33 1.106 4.43.059.046.325.775.59 1.618s.659 1.878.876 2.3.555 1.188.753 1.703.451 1.014.563 1.108c.112.093.454.668.76 1.277.514 1.025 1.861 3.268 2.199 3.663.08.094.426.555.768 1.025s.78.998.973 1.173.318.371.279.435c-.04.065.556.779 1.324 1.588.768.808 1.519 1.608 1.667 1.776 1 1.131 3.819 3.513 5.506 4.653.553.373.94.679.861.679-.08 0 .217.23.661.511.443.281.846.511.896.511s.335.183.633.406 1.002.625 1.565.893 1.112.573 1.222.677.646.365 1.192.58c.546.216 1.223.526 1.504.69s1.392.584 2.47.934c1.077.35 2.037.697 2.133.772.171.134 5.123 1.197 5.789 1.243.187.013.379.071.425.129.165.206 4.656.505 7.126.475 3.044-.038 6.575-.356 7.27-.656.187-.081 1.107-.283 2.044-.449 1.672-.296 2.558-.538 4.6-1.255.562-.198 1.29-.445 1.618-.549s1.375-.562 2.327-1.018 1.815-.828 1.917-.828.185-.059.185-.133c0-.073.574-.398 1.276-.724s1.277-.644 1.278-.71.5-.398 1.109-.739 1.107-.684 1.107-.763c0-.08.147-.191.326-.248s.62-.329.98-.606l.825-.632c.887-.669 3.921-3.374 4.417-3.937.193-.22.697-.768 1.118-1.218 1.148-1.225 1.503-1.677 1.4-1.781-.051-.051.034-.093.19-.093.157 0 .284-.084.284-.186 0-.201.444-.813 1.317-1.818.303-.349.638-.845.745-1.104.107-.258.257-.469.332-.469s.42-.556.763-1.236.756-1.388.915-1.575.478-.763.707-1.278c.23-.515.475-.963.545-.994s.128-.194.128-.362.112-.399.25-.513c.137-.115.236-.258.22-.319-.04-.149.665-2.044.96-2.582.277-.505 1.125-3.252 1.125-3.645 0-.15.06-.273.132-.273.112 0 .287-.715.831-3.403.228-1.129.57-4.474.57-5.577 0-.683.065-1.242.143-1.242.187 0 .188-3.052.001-3.168-.079-.049-.144-.605-.144-1.235 0-2.085-.963-8.454-1.357-8.97-.121-.159-.967-2.937-1.154-3.79-.046-.211-.148-.384-.228-.384-.079 0-.254-.364-.388-.809-.24-.792-.732-1.918-1.209-2.768a32 32 0 0 1-.719-1.448c-.265-.562-.523-1.061-.575-1.107s-.318-.469-.594-.937c-.591-1.007-.659-1.114-1.464-2.315-.34-.507-.781-1.068-.979-1.247-.199-.178-.362-.397-.362-.486s-.191-.39-.425-.668c-.235-.279-.427-.443-.427-.366s-.141-.089-.313-.37c-.171-.281-.782-1.009-1.358-1.618-.575-.609-1.048-1.165-1.05-1.235s-.067-.128-.144-.128-.559-.403-1.071-.895c-1.268-1.219-3.064-2.768-3.21-2.768-.066 0-.369-.249-.673-.554-.305-.304-.628-.553-.718-.553-.168 0-1.184-.669-1.349-.888-.05-.066-.548-.364-1.107-.661s-1.057-.602-1.106-.679c-.148-.23-3.736-2.011-4.841-2.403-.568-.201-1.179-.488-1.359-.636-.181-.148-.279-.186-.22-.084s-.254.009-.695-.208c-.441-.216-.924-.395-1.072-.398s-.992-.239-1.874-.525C259.333.056 251.115-.454 245.013.354M0 84.421v84.081l24.915-.064c26.972-.069 27.308-.08 29.514-.975.188-.076 1.031-.311 1.874-.522s1.606-.448 1.695-.528c.089-.079.3-.144.469-.144s.306-.076.306-.17.09-.171.2-.171c.525 0 2.841-1.01 4.656-2.03a152 152 0 0 1 2.194-1.208c.551-.295 1.202-.722 1.446-.949.245-.227.526-.412.626-.412s.474-.269.832-.596c.359-.328.688-.597.733-.597.079 0 .328-.197 1.897-1.508 1.053-.88 1.412-1.23 1.891-1.845.231-.297.477-.504.547-.461.069.042.242-.148.385-.424a3.2 3.2 0 0 1 .646-.822c.213-.176.464-.439.557-.586.21-.327 1.203-1.659 1.531-2.054.133-.16.355-.511.494-.779.139-.269.371-.587.515-.707s.502-.728.795-1.351.652-1.267.799-1.432.489-.854.761-1.53c.272-.677.555-1.27.629-1.319s.385-.816.692-1.706c.306-.891.633-1.714.725-1.83a.54.54 0 0 0 .065-.477c-.056-.147-.041-.229.033-.183.161.1 1.812-6.758 2.066-8.584.252-1.812.52-4.866.52-5.93 0-.507.069-.862.157-.807.195.12.196-8.62.001-9.255-.075-.246-.221-1.517-.324-2.826-.203-2.58-.796-6.54-1.02-6.818-.077-.095-.302-.939-.5-1.876-.458-2.17-.874-3.725-1.027-3.833-.065-.047-.329-.737-.585-1.534-.256-.796-.846-2.229-1.31-3.183-.463-.955-.843-1.811-.843-1.903a.26.26 0 0 0-.149-.223c-.081-.031-.353-.44-.604-.909-.578-1.079-1.838-2.956-2.3-3.425-.195-.197-.354-.413-.354-.481 0-.067-.096-.221-.213-.343a44 44 0 0 1-.98-1.116c-1.415-1.654-3.703-3.829-4.327-4.113-.237-.108-.399-.25-.359-.315s-.25-.297-.644-.516a14 14 0 0 1-1.228-.776c-.281-.208-1.163-.698-1.959-1.088-1.557-.763-1.944-1.029-1.496-1.029.339 0 1.323-.546 1.324-.735.001-.075.086-.085.191-.02.104.064.238.04.298-.054.059-.094.453-.391.875-.661 2.443-1.561 5.557-4.464 6.996-6.523 1.702-2.434 2.013-2.911 1.898-2.913-.066-.001-.035-.059.07-.128s.441-.623.746-1.232c.306-.609.641-1.164.746-1.233s.132-.126.06-.128c-.073-.001-.021-.175.115-.385.135-.211.399-.805.585-1.321.187-.515.501-1.358.699-1.874.198-.515.554-1.703.791-2.64.238-.937.505-1.895.595-2.13 1.128-2.948 1.348-15.728.385-22.317a62 62 0 0 1-.273-2.001c-.006-.117-.075-.213-.153-.213-.079 0-.142-.156-.142-.346 0-.481-1.033-4.811-1.198-5.02-.073-.094-.418-1.014-.765-2.045s-.681-1.912-.74-1.959c-.174-.137-.875-1.691-.875-1.941 0-.125-.159-.43-.353-.676s-.297-.449-.229-.449.01-.134-.13-.298-.425-.644-.635-1.065c-.21-.422-.472-.844-.582-.938-.11-.095-.38-.529-.599-.964-.219-.436-.527-.934-.684-1.106-.156-.173-.573-.719-.925-1.214-1.086-1.526-3.524-4.126-3.869-4.126-.105 0-.149-.068-.097-.151.051-.084-.117-.289-.374-.457s-.735-.564-1.063-.88-.884-.725-1.235-.909-.639-.413-.639-.508c0-.094-.134-.222-.298-.283-.398-.149-1.949-1.092-2.207-1.343-.114-.11-.669-.414-1.236-.675-.566-.261-1.029-.543-1.029-.626s-.082-.1-.182-.038-.272-.006-.383-.15c-.194-.252-2.258-1.153-2.567-1.121-.084.008-.199-.058-.256-.149-.129-.202-2.134-1.012-2.875-1.16-.3-.06-.51-.168-.465-.239.067-.109-.734-.375-1.79-.594-.14-.029-.917-.214-1.727-.411-.809-.196-1.595-.357-1.746-.357s-.275-.066-.275-.148c0-.172-3.005-.634-5.707-.876C41.909.41 32.71.341 20.571.341H0zm104.987-16.407c.027 37.222.104 67.906.171 68.187s.148.664.182.852c.033.187.102.456.154.596.051.141.183.804.293 1.475.111.67.351 1.782.535 2.47s.344 1.347.357 1.464c.012.117.073.213.137.213.063 0 .255.479.427 1.065.172.585.385 1.16.474 1.277s.117.213.064.213c-.115 0 .383 1.239.548 1.363.062.047.373.66.691 1.363s.632 1.316.697 1.363c.066.047.341.507.611 1.022s.576 1.014.682 1.107c.106.094.469.611.807 1.15s.68.98.76.98.23.185.333.412c.181.397.409.703 1.145 1.533.187.211.8.911 1.362 1.554 1.22 1.394 1.264 1.438 2.648 2.634a86 86 0 0 1 1.36 1.192c.57.533 1.685 1.363 1.83 1.363.083 0 .337.2.564.444s.566.516.753.604c.653.305 1.192.651 1.023.655-.094.002.442.321 1.192.709s1.401.751 1.448.808c.103.124.65.389 1.789.866.468.197 1.043.461 1.278.588.517.281 2.771 1.048 3.534 1.203.305.062.554.172.554.246 0 .178 3.255.817 5.734 1.124 2.328.289 8.894.333 11.217.076 1.904-.211 6.273-1.026 6.388-1.192.047-.068.814-.332 1.704-.587s1.963-.642 2.385-.862a28 28 0 0 1 1.871-.849c.608-.248 1.145-.504 1.193-.569s.662-.414 1.365-.776 1.316-.713 1.363-.779.507-.4 1.022-.742c3.812-2.53 7.553-6.103 10.256-9.797.457-.625.926-1.251 1.041-1.391.116-.141.407-.601.647-1.023.239-.421.614-1.073.833-1.448.548-.939 1.363-2.613 1.363-2.799 0-.084.078-.179.173-.211.186-.062 1.174-2.764 1.184-3.238a.9.9 0 0 1 .222-.511c.246-.256.875-2.703 1.153-4.484.102-.656.253-1.346.334-1.533.479-1.105.512-5.612.512-70.571L185.349.341h-26.741l-.051 65.971c-.028 36.284-.109 66.239-.18 66.567-.231 1.07-.828 2.979-.959 3.066-.07.047-.397.622-.728 1.278-1.633 3.245-6.572 6.9-9.325 6.9a.76.76 0 0 0-.469.191c-.299.298-4.555.266-4.929-.038-.256-.207-.275-.205-.144.017.134.227.115.227-.164 0-.173-.141-.36-.239-.416-.218-.786.292-4.719-1.68-6.174-3.096-.342-.332-.706-.604-.81-.604-.103 0-.187-.077-.187-.17s-.298-.477-.662-.852c-.639-.659-1.894-2.586-1.894-2.909 0-.087-.065-.158-.144-.158-.264 0-1.084-3.119-1.163-4.422-.043-.707-.092-30.569-.109-66.361L130.068.426 117.502.382 104.937.339zM306.783.429c-.098.098.396 1.703.686 2.229.098.178.492 1.282.875 2.453l1.311 4.003c.338 1.031.669 1.912.736 1.959s.375.967.684 2.045.647 2.066.749 2.198c.145.185.815 2.164 1.188 3.509.026.093.169.438.317.766.247.546 1.207 3.503 1.228 3.782.005.066.104.215.222.332.117.117.212.3.212.406s.222.877.493 1.712c.271.836.52 1.634.554 1.775.033.141.105.294.159.341s.315.775.581 1.618.694 2.07.951 2.726.599 1.652.761 2.214.475 1.427.697 1.922.406.993.408 1.107c.006.275.62 2.116.922 2.764.131.281.451 1.239.71 2.129s.559 1.733.666 1.874.449 1.137.759 2.215c.311 1.077.663 2.112.783 2.299.119.188.42 1.031.669 1.874.248.844.593 1.84.765 2.215s.527 1.41.788 2.3.534 1.701.607 1.801c.169.232 1.33 3.831 1.332 4.129.001.123.07.181.154.129s.201.116.261.373c.293 1.27 1.039 3.548 1.197 3.659.098.069.112.126.03.128-.082.001-.074.098.016.215.091.117.423 1.057.739 2.087.315 1.031.619 1.912.675 1.959.122.102.848 2.246.848 2.504 0 .099.13.477.288.84s.299.698.312.745.105.277.203.511.35 1.039.559 1.789c.21.749.449 1.405.531 1.457s.426 1.049.764 2.215.706 2.273.818 2.461.416 1.03.677 1.874c.262.843.58 1.763.708 2.044s.481 1.316.785 2.3c.303.983.609 1.828.679 1.877s.414 1.045.764 2.214.686 2.165.746 2.212.354.862.652 1.812l.543 1.726v70.229l12.734-.044 12.735-.043.085-35.35c.068-28.138.129-35.453.302-35.86.12-.281.326-.741.458-1.022.133-.281.492-1.316.798-2.3s.605-1.827.662-1.874.358-.928.666-1.959.702-2.181.873-2.555.478-1.257.68-1.959.471-1.47.599-1.704.476-1.231.773-2.215.589-1.827.649-1.874c.06-.046.362-.89.672-1.874.31-.983.706-2.104.88-2.491.174-.386.516-1.395.759-2.24.244-.846.583-1.833.754-2.194.172-.36.49-1.269.707-2.018.217-.75.438-1.401.49-1.448.053-.047.129-.201.17-.341.153-.531 1.209-3.674 1.316-3.918.061-.141.099-.313.085-.384-.015-.07.049-.127.143-.127s.17-.111.17-.245c0-.349.869-3.037 1.061-3.283.089-.113.104-.297.035-.409-.072-.116-.054-.16.04-.102.135.084.866-2.005 1.161-3.317.035-.157.176-.463.314-.681.137-.218.301-.588.365-.822.332-1.237 1.016-3.333 1.11-3.407.06-.047.284-.66.498-1.363.625-2.047.881-2.791 1.026-2.977.074-.096.197-.405.273-.686.075-.281.149-.549.163-.596l.335-1.107c.17-.562.358-1.061.419-1.108.06-.046.366-.89.679-1.873.312-.984.667-2.019.788-2.3.277-.646.629-1.694 1.115-3.322.21-.703.482-1.47.606-1.704.238-.451 1.086-3.03 1.086-3.304 0-.089.104-.282.231-.43.128-.148.444-1.036.703-1.973s.566-1.818.683-1.959c.116-.141.457-1.097.757-2.127s.624-1.964.719-2.079c.095-.114.395-.95.668-1.858.272-.907.566-1.735.652-1.839.158-.19 1.392-4.091 1.42-4.491.009-.117.063-.212.122-.212s.245-.441.415-.98.46-1.401.645-1.917c.186-.515.645-1.856 1.021-2.981s.74-2.121.809-2.214c.069-.094.334-.861.589-1.704s.536-1.709.625-1.925c.477-1.153 1.75-1.056-13.885-1.056h-14.048l-.348 1.168c-.191.643-.347 1.256-.347 1.363s-.063.194-.139.194c-.116 0-.231.345-.653 1.96-.376 1.439-.674 2.401-.765 2.47-.062.047-.404 1.158-.76 2.47s-.696 2.423-.756 2.47-.316.852-.57 1.789-.606 2.087-.783 2.555a31 31 0 0 0-.677 2.13c-.195.702-.444 1.584-.553 1.959s-.185.739-.168.809-.037.128-.12.128-.191.211-.241.468c-.166.867-1.038 3.875-1.147 3.961-.06.047-.15.239-.2.426-.785 2.928-1.021 3.75-1.119 3.905a1.2 1.2 0 0 0-.135.269c-.01.047-.062.2-.117.34s-.263.831-.463 1.534a69 69 0 0 1-.701 2.3c-.485 1.465-.606 1.872-1.032 3.492-.21.796-.463 1.504-.562 1.573-.098.069-.12.126-.047.128.072.001.024.213-.107.471a5 5 0 0 0-.358 1.065c-.146.738-.758 2.862-.956 3.322-.239.552-.784 2.312-1.028 3.322-.125.515-.304.99-.399 1.055-.094.065-.118.171-.054.235.063.063.009.322-.121.573-.13.252-.429 1.181-.664 2.066s-.587 2.029-.783 2.544c-.195.516-.51 1.537-.699 2.271s-.413 1.462-.497 1.619a4 4 0 0 0-.274.795c-.118.501-.125.494-.361-.341a61 61 0 0 0-.573-1.874c-.184-.562-.602-1.903-.932-2.981-.329-1.077-.666-2.112-.75-2.3-.12-.27-1.244-4.03-1.425-4.77a1.5 1.5 0 0 0-.146-.34c-.132-.216-1.194-3.846-1.209-4.132-.007-.117-.069-.213-.14-.213s-.18-.249-.243-.553c-.114-.552-.88-3.22-1.064-3.706-.053-.14-.11-.293-.126-.34a8 8 0 0 0-.138-.341c-.059-.14-.295-.907-.524-1.704-.454-1.578-.574-1.954-.788-2.47-.165-.395-.717-2.327-1.035-3.62-.121-.492-.282-.894-.358-.894s-.126-.058-.111-.128-.018-.243-.072-.383c-.14-.363-1.002-3.409-1.109-3.918-.049-.235-.146-.465-.215-.512s-.368-.997-.665-2.113-.64-2.227-.761-2.47-.469-1.324-.774-2.401c-.304-1.078-.618-2.039-.698-2.137s-.187-.404-.238-.681c-.14-.763-1.095-3.936-1.125-3.741-.015.094-.087-.06-.159-.341-.58-2.24-1.245-4.515-1.443-4.94-.132-.281-.452-1.278-.713-2.215s-.525-1.742-.589-1.788-.144-.239-.18-.426c-.062-.329-27.791-.662-28.115-.338m-55.165 6.045v1.192l-1.575.003c-.867.002-2.075.074-2.684.159s-1.5.203-1.98.261-1.63.323-2.555.589l-1.683.483-.297-1.045c-.164-.576-.298-1.097-.298-1.16-.001-.117 2.558-.717 3.917-.918.422-.063.849-.18.949-.26.222-.179 2.894-.442 4.801-.474l1.405-.023zm-16.796.553c.032.117.154.788.27 1.491l.253 1.533a3.3 3.3 0 0 0 .136.511c.051.141.18.754.286 1.363.326 1.868.908 4.339 1.044 4.431.071.048.181.316.245.596.265 1.176 1.014 3.415 1.18 3.531.112.078.115.127.009.13q-.17.006 0 .131c.094.069.412.841.708 1.717.61 1.808.593 1.867-.743 2.564-.703.366-3.114 2.485-3.798 3.338-.234.292-.675.795-.98 1.118s-.597.721-.65.885-.166.298-.252.298-.351.384-.588.852c-.237.469-.536.852-.663.852-.269 0-1.358-.416-1.977-.755-.235-.128-1.116-.442-1.96-.698s-1.571-.517-1.618-.58c-.116-.158-2.33-.782-4.046-1.139-.773-.161-1.405-.352-1.405-.424s-.135-.127-.299-.122c-.164.004-.911-.112-1.661-.258a65 65 0 0 0-2.768-.464c-.773-.11-1.405-.256-1.405-.326 0-.304 2.29-4.769 2.536-4.944.066-.047.341-.469.61-.937s.614-.967.767-1.108c.153-.14.537-.658.852-1.15s.626-.894.692-.894.339-.32.61-.711c.543-.786 3.523-3.834 4.585-4.69 2.076-1.675 3.294-2.606 3.408-2.606.071 0 .29-.161.487-.358.426-.426 3.292-2.112 4.221-2.484.359-.144.652-.342.652-.442s.049-.131.108-.072.268-.005.464-.142c.436-.306.614-.315.69-.037m34.56.128c.238.187.498.341.577.341.306 0 2.436 1.143 2.329 1.25-.062.062-.029.113.073.113.182 0 2.256 1.168 2.426 1.366.047.055.354.263.681.462s.822.598 1.097.885.574.523.664.523.52.326.955.724c.436.399 1.057.963 1.381 1.254 1.129 1.017 3.229 3.262 3.229 3.452 0 .106.074.192.165.192.166 0 1.157 1.236 2.167 2.704.299.434.653.904.788 1.044s.463.677.728 1.193c.265.515.577 1.013.693 1.107.231.187 1.251 2.327 1.251 2.625 0 .102.064.186.143.186.142 0 .538.741.538 1.005 0 .076-.479.186-1.064.244-.586.059-1.276.146-1.534.193s-.909.162-1.448.254-1.247.217-1.575.277a9 9 0 0 1-.81.119c-.117.005-.212.066-.212.136s-.326.177-.725.239c-.953.148-3.845.899-4.386 1.139-.234.104-1.269.483-2.3.842-1.031.36-1.797.662-1.704.672.094.01-.213.149-.681.308-.972.332-.893.379-1.823-1.084-.703-1.105-3.064-3.822-3.338-3.841-.066-.005-.427-.311-.802-.681-.374-.37-1.228-1.031-1.896-1.47-1.311-.86-1.386-1.093-.691-2.164.187-.288.816-1.936.885-2.321.038-.211.312-.982.514-1.448.341-.789.888-2.616 1.12-3.748.115-.562.264-1.099.33-1.192.171-.242.609-2.402.934-4.6.379-2.565.398-2.641.659-2.641.126 0 .424.154.662.341m-15.464 17.038c2.085.23 5.8 1.378 6.71 2.072.223.171.488.311.587.311.1 0 .71.364 1.356.809a37 37 0 0 0 1.506.998c.182.104.539.414.793.689s.673.632.931.794c.257.162.47.389.472.504s.27.438.596.719.593.573.593.651.341.586.757 1.127c.417.542.964 1.437 1.215 1.989s.515 1.043.584 1.089c.189.127 1.192 3.234 1.192 3.693 0 .218.068.396.152.396s.156.173.162.383c.005.211.084.805.176 1.321.217 1.222.217 4.114-.001 5.196-.094.468-.174 1.024-.178 1.235-.004.21-.075.383-.159.383s-.152.178-.152.396c0 .667-1.013 3.487-1.631 4.542-.321.548-.584 1.076-.584 1.172 0 .097-.191.39-.423.653-.708.798-.77.883-.77 1.058 0 .277-2.549 2.879-3.481 3.554-.475.343-.912.694-.971.779-.109.155-1.044.719-2.562 1.545-.668.364-1.713.8-2.44 1.021-.094.028-.439.17-.767.315-1.846.817-7.866 1.049-10.44.403-1.688-.425-4.783-1.695-5.299-2.175-.186-.174-.405-.316-.487-.316-.221 0-2.04-1.269-2.412-1.683-.179-.199-.397-.361-.485-.361-.431 0-3.191-3.314-4.044-4.855-.207-.375-.484-.803-.615-.951s-.241-.378-.244-.511-.118-.391-.255-.573c-.138-.181-.251-.445-.251-.585s-.148-.566-.329-.947c-1.949-4.092-1.278-12.6 1.292-16.387.24-.353.581-.914.759-1.247.334-.626.861-1.305 1.813-2.338.305-.331.554-.67.554-.754 0-.085.057-.155.128-.157.07-.002.664-.51 1.32-1.13s1.403-1.201 1.661-1.291c.257-.09.435-.218.395-.283-.041-.066.477-.384 1.15-.707s1.323-.682 1.444-.797c.228-.216 1.634-.682 3.272-1.084.515-.127.982-.294 1.037-.373.25-.352 4.196-.533 6.373-.292M41.312 26.654c2.369.432 5.705 1.784 5.945 2.409a.41.41 0 0 0 .357.239c1.563 0 5.861 6.735 6.468 10.136.489 2.734.639 4.045.64 5.579.001.767.072 1.32.172 1.32.103 0 .124.22.053.554-.064.304-.146 1.32-.181 2.257-.106 2.825-.891 7.6-1.29 7.847a.187.187 0 0 0-.062.257c.054.087-.023.331-.172.542-.148.211-.352.69-.453 1.065-.46 1.704-4.71 7.324-5.274 6.975-.086-.053-.156-.034-.157.042-.001.129-1.134.972-1.349 1.004-.054.008-.443.179-.864.379-.422.201-.901.367-1.065.369s-.298.065-.298.139c0 .632-4.493 1.045-11.457 1.052l-5.068.006v-42.42l6.346.001c4.822 0 6.673.06 7.709.248m173.893 8.46c.841.169.942.234.871.554-.044.2-.165.849-.27 1.444l-.189 1.082-1.122-.119c-.617-.065-1.141-.137-1.164-.158-.06-.057.293-2.007.418-2.312.097-.236.143-.373.199-.596.031-.122.189-.109 1.257.105m-.426 6.451c.377.002.553.083.553.258 0 .14-.066.255-.147.255s-.146.997-.145 2.215.055 2.215.121 2.215.167.709.225 1.575c.094 1.419.629 4.917.897 5.866.091.322.007.399-.636.582-.407.116-.814.275-.903.353-.31.271-.411.135-.624-.838-.118-.539-.273-1.02-.344-1.069-.464-.322-1.176-9.252-.879-11.045.091-.551.117-.569.711-.47.339.056.866.102 1.171.103m17.098 15.377c1.096 2.075 4.315 5.292 7.301 7.297l.36.241-.521 1.448c-.286.797-.57 1.563-.63 1.704s-.098.313-.084.383c.015.071-.04.128-.124.128s-.191.211-.241.469c-.128.658-.977 3.477-1.15 3.817-.177.346-.75 2.734-1.017 4.232-.108.609-.239 1.222-.29 1.363-.052.14-.112.37-.135.511-.379 2.343-.464 2.842-.516 3.018-.072.241-1.517-.303-2.424-.913a13 13 0 0 0-1.321-.745c-.419-.202-.761-.438-.761-.523s-.067-.136-.148-.113c-.082.023-.741-.379-1.466-.894-.725-.516-1.47-1.025-1.657-1.131-.186-.107-.622-.471-.969-.81-.346-.338-.695-.615-.774-.615s-.612-.454-1.185-1.01a383 383 0 0 0-1.947-1.874c-.498-.475-.872-.864-.829-.864.042 0-.202-.296-.543-.658-.971-1.034-1.565-1.756-2.047-2.489-.245-.372-.561-.801-.701-.954-.25-.271-1.35-2.03-2.442-3.905-.583-1.002-1.343-2.726-1.201-2.726.29 0 2.58-.378 2.791-.46.141-.055.475-.082.743-.061.269.022.447-.028.396-.11s.089-.164.311-.182c.221-.018 1.117-.195 1.989-.393a61 61 0 0 1 2.098-.444c.281-.046.856-.225 1.277-.398.672-.274 3.378-1.185 4.089-1.376.141-.038.294-.109.341-.159.114-.121 2.756-1.144 3.018-1.168.113-.011.298.153.409.364m41.462.336c.562.195 1.06.407 1.107.473s.89.372 1.874.679 2.441.771 3.237 1.03 2.215.609 3.152.778 1.744.365 1.794.436c.049.07.241.125.426.12.184-.004.795.077 1.357.18a60 60 0 0 0 1.911.313l.888.127-.767 1.514c-.974 1.92-2.261 4.046-2.612 4.315-.15.114-.208.21-.13.213.149.006-.894 1.411-1.12 1.51-.071.032-.129.166-.129.299s-.057.241-.128.242c-.07.001-.305.262-.522.581s-.677.881-1.022 1.25c-1.923 2.055-2.64 2.773-3.617 3.619a60 60 0 0 0-1.481 1.321c-.22.211-.44.383-.489.383-.098 0-1.219.819-1.557 1.137-.116.111-.691.489-1.277.842-.586.352-1.104.694-1.151.759-.093.129-1.886 1.114-3.471 1.907-1.168.585-1.209.556-1.371-.961-.206-1.931-.818-5.126-1.138-5.941-.175-.445-.288-.809-.251-.809.105 0-.679-2.738-1-3.493-.159-.375-.484-1.295-.722-2.044-.237-.75-.479-1.44-.536-1.533a1.7 1.7 0 0 1-.156-.504c-.028-.183-.108-.375-.178-.426-.505-.368-.586-1.37-.11-1.37.135 0 .245-.081.245-.181s.072-.136.159-.082.26-.044.383-.218c.124-.174.552-.522.951-.773.87-.547 3.788-3.355 3.788-3.645 0-.112.185-.325.412-.473.226-.149.539-.541.696-.871.395-.832.899-1.304 1.248-1.168.157.061.745.27 1.307.464M243.186 79.99c1.322.323 4.368.76 5.3.76.4 0 .771.07.824.155.053.086.383.155.734.153 1.698-.008 1.574-.097 1.574 1.14 0 1.095-.005 1.107-.468 1.102-.748-.008-4.686-.322-5.153-.411a78 78 0 0 0-1.601-.265c-.646-.102-1.298-.249-1.448-.326s-.678-.236-1.173-.352c-.994-.233-.992-.224-.414-1.58.304-.714.38-.73 1.825-.376M41.216 93.55c.938.107 1.67.25 1.628.319s.235.176.617.237c1.028.164 2.992.886 3.5 1.286.244.192.526.349.625.349.56 0 4.349 3.236 4.239 3.62-.02.07.029.128.11.128.161 0 1.387 1.823 1.387 2.064 0 .083.069.151.154.151s.388.555.673 1.235c.285.679.665 1.541.844 1.916.18.375.497 1.448.705 2.385s.424 1.819.48 1.959.123.371.15.511.124.612.216 1.047c.773 3.644.652 14.931-.171 15.922-.088.107-.113.319-.054.471.058.154.021.278-.083.278-.103 0-.176.057-.161.127s-.015.243-.066.384c-.052.14-.311.945-.576 1.788-.266.844-.528 1.572-.582 1.619-.115.098-.848 1.651-.848 1.796 0 .603-3.585 5.193-4.599 5.887-.729.5-.955.673-1.329 1.017-.41.378-1.544 1.01-1.812 1.01-.123 0-.321.116-.438.257-.23.277-2.398.973-3.917 1.257-.515.097-1.205.233-1.533.303s-3.414.151-6.857.181l-6.261.055V93.356h6.127c3.468 0 6.867.084 7.832.194"/><path fill="#0494d4" d="M249.898 100.165c-3.985.714-5.513 6.114-2.565 9.059 3.212 3.207 8.763 1.19 9.021-3.279.228-3.94-2.599-6.472-6.456-5.78m-6.116 20.135c-2.341.196-2.212.117-2.229 1.373-.036 2.668-1.313 7.55-2.078 7.943a9 9 0 0 0-.633.359c-.141.091-.831.408-1.534.706-.702.297-1.316.588-1.363.648-.046.059-.66.404-1.362.766s-1.316.712-1.363.777-.497.341-1 .612-.952.591-.997.711c-.046.119-.164.217-.263.217-.098 0-.43.192-.737.426s-.625.426-.706.426c-.082 0-.409.268-.727.596-.317.328-.672.597-.787.597-.116 0-.35.172-.52.383s-.579.585-.907.832c-.518.39-1.11.929-3.137 2.854l-.428.407-.973-.918a391 391 0 0 0-1.752-1.642c-.429-.398-.985-.918-1.236-1.157a10 10 0 0 0-1.107-.867c-.358-.238-.728-.524-.822-.635s-.592-.467-1.107-.791c-.516-.323-1.014-.677-1.108-.786-.093-.109-.553-.405-1.022-.66-.468-.254-.967-.56-1.107-.681s-.754-.468-1.363-.772c-.609-.303-1.146-.608-1.193-.677-.046-.07-.66-.377-1.362-.683s-1.429-.661-1.614-.789c-.638-.442-1.277-.14-.786.372.885.923 2.053 11.318 1.747 15.554-.281 3.893-1.391 10.587-1.755 10.587-.081 0-.148.192-.148.426q.001.425.281.426c.315 0 5.454-2.492 5.541-2.686.031-.069.554-.384 1.163-.701.609-.318 1.184-.665 1.278-.773.093-.108.539-.411.99-.672s.861-.585.912-.718.162-.242.247-.242c.382 0 2.141-1.452 4.592-3.79.86-.82 1.618-1.491 1.686-1.491.115 0 1.725 1.45 2.782 2.505.262.262.694.63.959.817.266.187 1.01.768 1.653 1.291.644.523 1.515 1.171 1.937 1.439.421.269.92.62 1.107.781s.801.54 1.363.842c.562.303 1.137.646 1.278.764.365.307 3.844 2.019 4.855 2.39.468.171.89.365.937.431.047.065.813.36 1.703.654s1.772.609 1.959.699c.459.22 3.287.92 4.813 1.191 1.103.196 1.235.261 1.235.604 0 .212.085.413.188.447.27.09.279 6.722.01 6.992-.386.385-.244 1.151.214 1.151.226 0 .437-.065.468-.146s.9-.393 1.931-.696 2.03-.649 2.22-.77c.191-.122.938-.467 1.661-.768s1.315-.602 1.315-.668.326-.279.724-.473c1.358-.661 3.804-2.678 5.415-4.467.383-.425.591-.493 1.831-.601.77-.067 1.4-.184 1.4-.259s.402-.189.894-.253c1.27-.165 4.547-.932 5.153-1.205.281-.127 1.297-.478 2.258-.781.96-.302 1.746-.606 1.746-.675s.211-.177.468-.239c1.068-.257 7.292-3.566 7.948-4.225.163-.164.358-.298.433-.298.158 0 2.842-1.981 3.842-2.837 1.184-1.012 3.541-3.192 3.994-3.694.24-.265.838-.911 1.33-1.436s.894-1.045.894-1.157c0-.461-4.749-5.344-5.834-5.999-.258-.156-.469-.342-.469-.415s-.309-.326-.687-.565-.823-.565-.989-.726c-.459-.445-1.85-1.4-2.039-1.4-.092 0-.207-.105-.256-.233-.05-.129-.437-.402-.861-.607-.424-.206-.947-.512-1.163-.681s-.892-.556-1.501-.86-1.222-.645-1.362-.758-.601-.346-1.023-.519a65 65 0 0 1-1.959-.864 25 25 0 0 0-2.47-.95c-.703-.22-1.316-.448-1.363-.508-.108-.137-1.596-.554-3.237-.907-1.779-.383-1.771-.379-3.837-2.107a6.4 6.4 0 0 0-.998-.658 5.3 5.3 0 0 1-.872-.56c-.187-.16-.915-.542-1.618-.849s-1.316-.616-1.363-.686c-.111-.165-3.232-1.2-3.62-1.2-.164 0-.298-.068-.298-.152 0-.778-9.283-1.435-14.31-1.013m9.881 3.462c.984.141 1.942.327 2.129.414.188.088 1.162.395 2.165.682s2.063.667 2.354.844l.529.321-3.206.019c-3.902.022-8.748.539-9.849 1.051-.187.087-1.03.306-1.874.488-.843.181-1.671.384-1.84.45-.325.129-.27-.606.08-1.053.084-.106.248-.911.365-1.788l.213-1.595.846-.114c1.285-.172 6.071-.006 8.088.281m8.725 5.648c.587.097.619.131.43.467-.26.461-.275 3.325-.021 3.871.105.225.37.83.588 1.346.68 1.601.926 1.705 1.913.809a14 14 0 0 1 1.046-.86c.496-.348.544-.648.19-1.19-.451-.692-.642-1.984-.427-2.883.257-1.07-.163-1.083 5.415.162.63.14.61.441-.117 1.775-.374.687-.812 1.71-.972 2.272s-.352 1.062-.427 1.11c-1.133.733-1.198 11.208-.085 13.695.13.29.429 1.079.664 1.753.234.674.529 1.411.653 1.638.125.227.436.8.692 1.274l.465.862-.55.118c-.303.064-.634.184-.736.266-.274.22-4.295 1.054-4.57.948-.641-.245-.686-2.483-.077-3.766.175-.369.318-.718.318-.776 0-.159-2.302-1.875-2.515-1.875-1.006 0-2.373 6.122-1.437 6.434.812.27.141.696-1.286.815-1.869.157-8.175-.017-8.445-.233-.111-.088-.719-.214-1.352-.28-.937-.097-1.189-.189-1.35-.489-.534-.992-.472-2.513.155-3.834l.277-.584-.584-.486c-1.987-1.656-2.211-1.66-2.861-.047a39 39 0 0 1-.592 1.404c-.104.221-.19 1.003-.193 1.739l-.004 1.338-.426-.101c-.234-.056-.503-.158-.596-.228-.094-.07-.861-.336-1.704-.59s-1.947-.658-2.453-.896l-.92-.433.835-.737c.459-.405.969-.782 1.133-.839.288-.099.429-.59.17-.591-.95-.005-.933-4.342.019-4.985.134-.09.095-.189-.123-.318a3.7 3.7 0 0 1-.602-.465c-.983-.963-1.804-1.328-2.167-.965-1.549 1.548-1.549 7.458 0 8.477.135.089.13.126-.017.128-.264.003-1.434-.535-1.695-.78-.109-.102-.454-.289-.767-.416-.312-.126-1.161-.598-1.886-1.048s-1.379-.82-1.453-.82-.386-.23-.694-.511-.622-.511-.698-.511c-.374 0-3.277-2.372-5.751-4.699l-1.464-1.378 1.103-1.093a41 41 0 0 1 2.346-2.114 68 68 0 0 0 1.619-1.363c.206-.188.828-.647 1.383-1.022.555-.374 1.113-.779 1.241-.901.127-.121.599-.406 1.048-.634s.844-.479.876-.559c.032-.079.595-.4 1.251-.712s1.308-.662 1.448-.777c.141-.114.614-.364 1.052-.555l.797-.347-.335.782c-1.028 2.397-.687 6.256.681 7.724.35.376 1.212.126 1.212-.351 0-.085.134-.2.298-.255.164-.056.552-.311.862-.569l.563-.469-.417-.763c-.748-1.368-.671-3.502.156-4.329.278-.279-.329-.961-1.485-1.667-.766-.468-.443-.74 1.697-1.432 1.092-.353 2.179-.735 2.414-.848s.657-.252.938-.309l.511-.104.034 1.405c.02.799.111 1.431.213 1.465.098.032.184.225.19.428.005.203.218.791.471 1.306.561 1.142.955 1.262 1.697.52.286-.286.579-.52.65-.52.74 0 1.032-.964.564-1.862-.404-.776-.482-2.175-.174-3.111l.198-.599 1.826-.207c1.005-.114 1.98-.23 2.167-.257.682-.1 7.343-.09 7.959.012m13.762 3.458c.047.054.698.362 1.448.684s1.401.634 1.448.693.698.408 1.448.776 1.44.753 1.533.855c.094.102.554.402 1.022.667.469.264.891.537.937.606.08.118 1.86 1.352 1.95 1.352.047 0 .478.367 2.906 2.47 1.648 1.429 2.467 2.259 2.469 2.502.002.302-3.452 3.519-4.94 4.601-.421.307-.92.7-1.107.874-.187.173-.628.463-.98.644-.351.182-.638.391-.638.466s-.556.43-1.235.789c-.68.36-1.274.704-1.321.766-.151.201-3.108 1.715-4.208 2.155-1.247.499-1.281.487-1.865-.671-.245-.485-.519-.93-.61-.988s-.452-.948-.804-1.977-.682-1.94-.734-2.024c-.696-1.129-.689-9.252.009-9.771.068-.051.341-.782.609-1.625.855-2.699 2.101-4.497 2.663-3.844m-21.748.905c-1.166 1.847-1.255 6.111-.149 7.216.144.144.261.36.261.479 0 .704.669.852 1.323.292.35-.301.886-.704 1.19-.897.656-.416.701-.826.171-1.569-.415-.581-.574-3.055-.213-3.312.588-.42.744-1.329.255-1.485-.187-.059-.341-.172-.341-.251 0-.189-1.528-1.197-1.815-1.197-.124 0-.43.326-.682.724m-42.242 2.684c.087 0 .472.234.856.52 1.543 1.15 2.906 2.14 3.448 2.506.776.524.726.814-.067.391-.351-.187-1.693-.847-2.981-1.466l-2.343-1.125v-.669c0-.368-.076-.669-.17-.669s-.17-.12-.17-.267c0-.198.165-.132.635.255.349.288.706.524.792.524m19.862 2.938c-.389.632-.847 2.048-.847 2.619 0 .212-.076.432-.17.49-.208.129-.229 1.619-.024 1.619.081 0 .192.383.248.851.26 2.2 1.292 3.476 2.163 2.678a18 18 0 0 1 1.063-.872c.741-.561.756-.646.288-1.703q-.796-1.8.14-3.822c.296-.64.085-.932-1.403-1.942-.881-.598-1.045-.589-1.458.082m14.324.028c-.197.32-.452.972-.565 1.448-.113.477-.264.867-.336.867-.071 0-.13.728-.13 1.618s.07 1.618.156 1.618.204.288.263.639c.312 1.837 1.265 2.731 2.09 1.96a11 11 0 0 1 1.132-.901c.734-.5.723-.416.194-1.553-.526-1.13-.548-2.194-.072-3.467.413-1.105.402-1.128-.987-2.155-1.088-.803-1.288-.812-1.745-.074m16.094-.198c-1.33 1.879-1.201 6.844.221 8.518.372.436.521.386 1.692-.574 1.167-.955 1.225-1.125.724-2.109-.46-.902-.451-2.332.022-3.469.423-1.018.403-1.062-.994-2.094-1.026-.757-1.291-.801-1.665-.272m-49.949.875c.391.224 1.21.623 1.819.888.609.264 1.146.534 1.193.6s.508.312 1.022.547l.937.427-3.024.013-3.024.014v-1.448c0-1.618.025-1.642 1.077-1.041m67.405.961c-.826.322-1.884 2.891-1.191 2.891.094 0 .171.121.171.269 0 1.497 3.158 1.74 4.097.316 1.27-1.926-.865-4.338-3.077-3.476m-63.031 3.704-2.682 1.267c-1.147.543-2.163.987-2.257.987a.17.17 0 0 0-.171.17.17.17 0 0 1-.171.17c-.1 0-.17-.596-.17-1.448v-1.448l3.024.011c2.938.011 3.007.019 2.427.291m37.744.418c-.146.208-.265.476-.265.596s-.074.218-.164.218c-.322 0-.688 1.767-.688 3.322 0 1.515.364 3.322.67 3.322.08 0 .192.172.25.383.307 1.12.85 1.185 1.92.227.265-.237.666-.574.891-.748.461-.356.418-.971-.104-1.493-.543-.542-.512-2.267.06-3.398l.487-.963-.426-.325a13 13 0 0 1-.766-.635c-.987-.902-1.491-1.039-1.865-.506m-37.613 1.836c-.117.187-.258.34-.314.34-.105 0-1.605 1.118-2 1.491-.124.117-.565.412-.98.655s-.755.503-.755.577-.287.269-.639.434a9 9 0 0 0-1.107.627c-.258.18-.468.251-.468.156 0-.094.076-.219.17-.277s.17-.373.17-.701c0-.56.059-.622.98-1.04.539-.244 1.018-.498 1.065-.564s.66-.369 1.362-.673 1.395-.656 1.537-.781c.203-.178.85-.501 1.148-.574.024-.006-.052.142-.169.33m39.989 13.973c1.821.006 2.007.034 1.703.251a8 8 0 0 0-.577.463c-.612.567-4.14 2.518-4.551 2.519-.18 0-.404-1.591-.407-2.877l-.001-.578.894.108c.492.059 1.814.11 2.939.114"/></g></svg>